<svg width="318" height="352" viewBox="0 0 318 352" fill="none" xmlns="http://www.w3.org/2000/svg">
<path d="M280.98 155.378L178.119 123.518L60.1106 128.979L149.354 161.13L280.98 155.378Z" fill="#5D72C1"/>
<path d="M178.118 123.518L161.385 259.044L58.5146 265.969L60.1092 128.978L178.118 123.518Z" fill="#344AA6"/>
<path d="M134.883 303.994L252.065 289.113L280.977 155.377L149.351 161.129L134.883 303.994Z" fill="#CB43C6"/>
<path d="M149.355 161.13L60.1107 128.978L58.516 265.969L134.887 303.995L149.355 161.13Z" fill="#7A3177"/>
<path d="M104.227 288.738L85.4684 279.393L84.2015 137.529L103.798 144.715L104.227 288.738Z" fill="#A9301F"/>
<path d="M215.309 293.778L244.047 156.971L218.796 158.091L194.424 296.431L215.309 293.778Z" fill="#A9301F"/>
<path d="M49.4261 103.808L140.075 141.236L137.419 174.138L50.0601 134.753L49.4261 103.808Z" fill="#AD3FA8"/>
<path d="M49.4228 103.808L145.556 100.034L177.711 98.7788L298.056 140.199L140.072 141.235L49.4228 103.808Z" fill="#CB43C5"/>
<path d="M290.241 169.223L137.416 174.139L140.071 141.236L298.056 140.2L290.241 169.223Z" fill="#7A3177"/>
<path d="M260.084 140.388L228.179 140.946L220.559 171.465L252.529 170.25L260.084 140.388Z" fill="#FB3419"/>
<path d="M260.082 140.387L145.554 100.034L118.754 101.08L228.177 140.944L260.082 140.387Z" fill="#FB3419"/>
<path d="M95.5094 123.221L96.5168 155.692L72.3259 144.807L71.3543 113.308L95.5094 123.221Z" fill="#FB3419"/>
<path d="M71.3519 113.309L216.755 112.218L239.346 119.991L95.507 123.222L71.3519 113.309Z" fill="#FB3419"/>
<path d="M264.643 76.6374C265.101 88.8613 227.788 117.132 184.526 117.434C174.52 116.1 170.044 113.025 170.044 113.025C170.044 113.025 221.378 102.657 236.363 73.4331C246.159 54.3142 224.285 48.3305 214.772 38.3665C210.797 34.1906 215.398 27.5813 220.685 29.8357L238.367 37.4023L256.229 55.7586C256.229 55.7586 264.44 71.0094 264.643 76.6374Z" fill="#A9301F"/>
<path d="M174.523 116.099L212.384 58.4816C222.061 49.4378 230.112 48.6624 242.201 53.8345C258.477 60.8091 264.645 76.6366 264.645 76.6366C264.645 76.6366 268.168 72.8298 260.478 58.5827C257.435 52.9617 250.272 44.4343 245.754 39.9231C237.344 31.5323 204.493 12.9688 195.705 33.2182L165.281 109.739L174.523 116.099Z" fill="#FB3419"/>
<path d="M75.103 60.1698C72.2028 72.0574 103.091 107.281 145.406 116.334C155.471 117.037 160.468 114.93 160.468 114.93C160.468 114.93 112.274 94.4023 103.452 62.741C97.6917 42.0399 120.316 40.5958 131.623 32.7566C136.362 29.4838 133.185 22.0726 127.548 23.2242L108.713 27.039L87.5317 41.4144C87.5317 41.4144 76.437 54.6969 75.103 60.1698Z" fill="#A9301F"/>
<path d="M155.47 117.038L129.939 52.945C122.267 42.1336 114.534 39.7475 101.673 42.3709C84.3193 45.9214 75.1019 60.1707 75.1019 60.1707C75.1019 60.1707 72.4204 55.7315 82.8118 43.3384C86.9155 38.4399 95.6424 31.5338 100.981 28.029C110.893 21.5067 146.797 9.96665 151.344 31.5775L165.803 112.683L155.47 117.038Z" fill="#FB3419"/>
</svg>
